%FSLAX35Y35*%
%MOIN*%
G04 EasyPC Gerber Version 18.0.8 Build 3632 *
%ADD74R,0.04150X0.05724*%
%ADD72R,0.04937X0.06906*%
%ADD73R,0.04937X0.07102*%
%ADD28C,0.07000*%
%ADD29C,0.07000*%
X0Y0D02*
D02*
D28*
X4868Y26209D03*
X4993Y4244D03*
Y11108D03*
Y17972D03*
Y33323D03*
Y40437D03*
Y47051D03*
Y53791D03*
X7489Y74243D03*
Y84243D03*
Y94243D03*
X17223Y89484D03*
X22215Y95600D03*
X27831Y95724D03*
X33822D03*
X39563D03*
X45179D03*
X109702Y81247D03*
X112947Y75756D03*
X113322Y17098D03*
X118938Y80998D03*
X123056Y74009D03*
X137783Y77254D03*
X138407Y90358D03*
X138657Y83868D03*
X145146Y90857D03*
X145396Y77254D03*
Y84617D03*
X154382Y24587D03*
Y31950D03*
Y46427D03*
Y53666D03*
D02*
D29*
X14043Y5169D03*
Y65169D03*
X24043Y5169D03*
Y55169D03*
Y65169D03*
X34043Y5169D03*
Y65169D03*
X44043Y5169D03*
Y55169D03*
Y65169D03*
X54043Y5169D03*
Y55169D03*
Y65169D03*
X64043Y5169D03*
Y55169D03*
Y65169D03*
X74043Y5169D03*
Y65169D03*
X84043Y5169D03*
Y65169D03*
X94043Y5169D03*
Y65169D03*
X104043Y5169D03*
Y65169D03*
X114043Y5169D03*
Y65169D03*
X124043Y5169D03*
Y65169D03*
X134043Y5169D03*
Y65169D03*
X144043Y5169D03*
Y65169D03*
D02*
D72*
X96972Y84492D03*
Y94335D03*
D02*
D73*
X89098Y84492D03*
Y94335D03*
D02*
D74*
X17674Y79001D03*
X24760D03*
X60231D03*
Y85615D03*
X67318Y79001D03*
Y85615D03*
X0Y0D02*
M02*
