%FSLAX35Y35*%
%MOIN*%
G04 EasyPC Gerber Version 18.0.8 Build 3632 *
%ADD11C,0.00500*%
%ADD99C,0.10000*%
X0Y0D02*
D02*
D11*
X14868Y32146D02*
X16430Y35896D01*
X17993Y32146*
X15493Y33709D02*
X17368D01*
X14993Y10181D02*
X16555Y13931D01*
X18118Y10181*
X15618Y11744D02*
X17493D01*
X14993Y17045D02*
X16555Y20795D01*
X18118Y17045*
X15618Y18608D02*
X17493D01*
X14993Y23909D02*
X16555Y27659D01*
X18118Y23909*
X15618Y25472D02*
X17493D01*
X14993Y39260D02*
X16555Y43010D01*
X18118Y39260*
X15618Y40823D02*
X17493D01*
X14993Y46374D02*
X16555Y50124D01*
X18118Y46374*
X15618Y47937D02*
X17493D01*
X14993Y52989D02*
X16555Y56739D01*
X18118Y52989*
X15618Y54551D02*
X17493D01*
X14993Y59728D02*
X16555Y63478D01*
X18118Y59728*
X15618Y61291D02*
X17493D01*
X17489Y80180D02*
X19051Y83930D01*
X20614Y80180*
X18114Y81743D02*
X19989D01*
X17489Y90180D02*
X19051Y93930D01*
X20614Y90180*
X18114Y91743D02*
X19989D01*
X17489Y100180D02*
X19051Y103930D01*
X20614Y100180*
X18114Y101743D02*
X19989D01*
X27223Y95422D02*
X28786Y99172D01*
X30348Y95422*
X27848Y96984D02*
X29723D01*
X33280Y19669D02*
X33905Y19357D01*
X34217Y18732*
X33905Y18107*
X33280Y17794*
X31092*
Y21544*
X33280*
X33905Y21232*
X34217Y20607*
X33905Y19982*
X33280Y19669*
X31092*
X32215Y101537D02*
X33778Y105287D01*
X35341Y101537*
X32841Y103100D02*
X34715D01*
X39145Y25660D02*
X39770Y25347D01*
X40083Y24722*
X39770Y24097*
X39145Y23785*
X36958*
Y27535*
X39145*
X39770Y27222*
X40083Y26597*
X39770Y25972*
X39145Y25660*
X36958*
X37831Y101662D02*
X39394Y105412D01*
X40957Y101662*
X38457Y103224D02*
X40331D01*
X43822Y101662D02*
X45385Y105412D01*
X46947Y101662*
X44447Y103224D02*
X46322D01*
X46230Y66221D02*
X46855Y65908D01*
X47168Y65283*
X46855Y64658*
X46230Y64346*
X44043*
Y68096*
X46230*
X46855Y67783*
X47168Y67158*
X46855Y66533*
X46230Y66221*
X44043*
X46283Y31595D02*
X46908Y31282D01*
X47221Y30657*
X46908Y30032*
X46283Y29720*
X44096*
Y33470*
X46283*
X46908Y33157*
X47221Y32532*
X46908Y31907*
X46283Y31595*
X44096*
X46509Y84317D02*
X47134Y84005D01*
X47446Y83380*
X47134Y82755*
X46509Y82442*
X44321*
Y86192*
X46509*
X47134Y85880*
X47446Y85255*
X47134Y84630*
X46509Y84317*
X44321*
X49563Y101662D02*
X51126Y105412D01*
X52688Y101662*
X50188Y103224D02*
X52063D01*
X56230Y20044D02*
X56855Y19731D01*
X57168Y19106*
X56855Y18481*
X56230Y18169*
X54043*
Y21919*
X56230*
X56855Y21606*
X57168Y20981*
X56855Y20356*
X56230Y20044*
X54043*
Y91303D02*
Y95053D01*
X57168*
X56543Y93178D02*
X54043D01*
Y91303D02*
X57168D01*
X55179Y101662D02*
X56742Y105412D01*
X58304Y101662*
X55804Y103224D02*
X57679D01*
X61907Y17794D02*
Y21544D01*
X63782*
X64407Y21232*
X64720Y20919*
X65032Y20294*
Y19044*
X64720Y18419*
X64407Y18107*
X63782Y17794*
X61907*
X65728Y103787D02*
X66354Y103474D01*
X66666Y102849*
X66354Y102224*
X65728Y101911*
X63541*
Y105661*
X65728*
X66354Y105349*
X66666Y104724*
X66354Y104099*
X65728Y103787*
X63541*
X71220Y77453D02*
X71845Y77141D01*
X72157Y76516*
X71845Y75891*
X71220Y75578*
X69032*
Y79328*
X71220*
X71845Y79016*
X72157Y78391*
X71845Y77766*
X71220Y77453*
X69032*
X76550Y79892D02*
X76237Y79579D01*
X75612Y79267*
X74674*
X74050Y79579*
X73737Y79892*
X73424Y80517*
Y81767*
X73737Y82392*
X74050Y82704*
X74674Y83017*
X75612*
X76237Y82704*
X76550Y82392*
X80793Y21983D02*
X80480Y21670D01*
X79855Y21358*
X78918*
X78293Y21670*
X77980Y21983*
X77668Y22608*
Y23858*
X77980Y24483*
X78293Y24796*
X78918Y25108*
X79855*
X80480Y24796*
X80793Y24483*
X84763Y79573D02*
X84450Y79260D01*
X83825Y78948*
X82887*
X82263Y79260*
X81950Y79573*
X81637Y80198*
Y81448*
X81950Y82073*
X82263Y82385*
X82887Y82698*
X83825*
X84450Y82385*
X84763Y82073*
X92400Y21484D02*
X92087Y21171D01*
X91462Y20859*
X90524*
X89900Y21171*
X89587Y21484*
X89274Y22109*
Y23359*
X89587Y23984*
X89900Y24296*
X90524Y24609*
X91462*
X92087Y24296*
X92400Y23984*
X92935Y97297D02*
X93561Y96984D01*
X93873Y96359*
X93561Y95734*
X92935Y95422*
X90748*
Y99172*
X92935*
X93561Y98859*
X93873Y98234*
X93561Y97609*
X92935Y97297*
X90748*
X100488Y79573D02*
X100175Y79260D01*
X99550Y78948*
X98613*
X97988Y79260*
X97675Y79573*
X97363Y80198*
Y81448*
X97675Y82073*
X97988Y82385*
X98613Y82698*
X99550*
X100175Y82385*
X100488Y82073*
X106165Y18920D02*
X106790Y18608D01*
X107102Y17983*
X106790Y17358*
X106165Y17045*
X103977*
Y20795*
X106165*
X106790Y20483*
X107102Y19858*
X106790Y19233*
X106165Y18920*
X103977*
X114027Y20293D02*
X114652Y19981D01*
X114965Y19356*
X114652Y18731*
X114027Y18418*
X111840*
Y22168*
X114027*
X114652Y21856*
X114965Y21231*
X114652Y20606*
X114027Y20293*
X111840*
X119078Y8933D02*
Y12683D01*
X120954*
X121578Y12371*
X121891Y12058*
X122204Y11433*
Y10183*
X121891Y9558*
X121578Y9246*
X120954Y8933*
X119078*
X119702Y87185D02*
X121265Y90935D01*
X122828Y87185*
X120328Y88747D02*
X122202D01*
X122264Y64723D02*
X122889Y64411D01*
X123202Y63786*
X122889Y63161*
X122264Y62848*
X120077*
Y66598*
X122264*
X122889Y66286*
X123202Y65661*
X122889Y65036*
X122264Y64723*
X120077*
X123013Y39887D02*
X123638Y39575D01*
X123951Y38950*
X123638Y38325*
X123013Y38012*
X120826*
Y41762*
X123013*
X123638Y41450*
X123951Y40825*
X123638Y40200*
X123013Y39887*
X120826*
X123512Y33897D02*
X124137Y33584D01*
X124450Y32959*
X124137Y32334*
X123512Y32022*
X121325*
Y35772*
X123512*
X124137Y35459*
X124450Y34834*
X124137Y34209*
X123512Y33897*
X121325*
X122947Y81693D02*
X124510Y85443D01*
X126072Y81693*
X123572Y83256D02*
X125447D01*
X123322Y23036D02*
X124884Y26786D01*
X126447Y23036*
X123947Y24598D02*
X125822D01*
X125759Y50926D02*
X126384Y50613D01*
X126696Y49989*
X126384Y49363*
X125759Y49051*
X123571*
Y52801*
X125759*
X126384Y52489*
X126696Y51863*
X126384Y51239*
X125759Y50926*
X123571*
X131125Y30153D02*
X131750Y29840D01*
X132063Y29215*
X131750Y28590*
X131125Y28278*
X128938*
Y32028*
X131125*
X131750Y31715*
X132063Y31090*
X131750Y30465*
X131125Y30153*
X128938*
Y86935D02*
X130500Y90685D01*
X132063Y86935*
X129563Y88498D02*
X131438D01*
X133056Y79946D02*
X134619Y83696D01*
X136181Y79946*
X133681Y81509D02*
X135556D01*
X136242Y59981D02*
X136867Y59668D01*
X137180Y59043*
X136867Y58418*
X136242Y58106*
X134055*
Y61856*
X136242*
X136867Y61543*
X137180Y60918*
X136867Y60293*
X136242Y59981*
X134055*
X136617Y32150D02*
X137242Y31837D01*
X137554Y31212*
X137242Y30587*
X136617Y30274*
X134429*
Y34024*
X136617*
X137242Y33712*
X137554Y33087*
X137242Y32462*
X136617Y32150*
X134429*
X139612Y19295D02*
X140237Y18982D01*
X140550Y18357*
X140237Y17732*
X139612Y17420*
X137424*
Y21170*
X139612*
X140237Y20857*
X140550Y20232*
X140237Y19607*
X139612Y19295*
X137424*
X141609Y63101D02*
X142234Y62788D01*
X142546Y62163*
X142234Y61538*
X141609Y61226*
X139421*
Y64976*
X141609*
X142234Y64663*
X142546Y64038*
X142234Y63413*
X141609Y63101*
X139421*
X142981Y97172D02*
X143607Y96859D01*
X143919Y96235*
X143607Y95609*
X142981Y95297*
X140794*
Y99047*
X142981*
X143607Y98735*
X143919Y98109*
X143607Y97485*
X142981Y97172*
X140794*
X145727Y55987D02*
X146352Y55674D01*
X146665Y55050*
X146352Y54424*
X145727Y54112*
X143540*
Y57862*
X145727*
X146352Y57550*
X146665Y56924*
X146352Y56300*
X145727Y55987*
X143540*
X147783Y83191D02*
X149346Y86941D01*
X150908Y83191*
X148408Y84754D02*
X150283D01*
X148407Y96295D02*
X149970Y100045D01*
X151532Y96295*
X149032Y97858D02*
X150907D01*
X150719Y58733D02*
X151344Y58420D01*
X151657Y57795*
X151344Y57170*
X150719Y56857*
X148532*
Y60607*
X150719*
X151344Y60295*
X151657Y59670*
X151344Y59045*
X150719Y58733*
X148532*
X148657Y89806D02*
X150219Y93556D01*
X151782Y89806*
X149282Y91368D02*
X151157D01*
X154588Y34195D02*
X155213Y33883D01*
X155526Y33258*
X155213Y32633*
X154588Y32320*
X152401*
Y36070*
X154588*
X155213Y35758*
X155526Y35133*
X155213Y34508*
X154588Y34195*
X152401*
X156585Y79076D02*
X157210Y78763D01*
X157523Y78138*
X157210Y77513*
X156585Y77200*
X154398*
Y80950*
X156585*
X157210Y80638*
X157523Y80013*
X157210Y79388*
X156585Y79076*
X154398*
X155146Y96794D02*
X156709Y100544D01*
X158272Y96794*
X155772Y98357D02*
X157646D01*
X155396Y83191D02*
X156959Y86941D01*
X158521Y83191*
X156021Y84754D02*
X157896D01*
X155396Y90554D02*
X156959Y94304D01*
X158521Y90554*
X156021Y92117D02*
X157896D01*
X160204Y26783D02*
X160830Y26470D01*
X161142Y25846*
X160830Y25220*
X160204Y24908*
X158017*
Y28658*
X160204*
X160830Y28346*
X161142Y27720*
X160830Y27096*
X160204Y26783*
X158017*
X164382Y30524D02*
X165944Y34274D01*
X167507Y30524*
X165007Y32087D02*
X166882D01*
X164382Y37887D02*
X165944Y41637D01*
X167507Y37887*
X165007Y39450D02*
X166882D01*
X164382Y52365D02*
X165944Y56115D01*
X167507Y52365*
X165007Y53927D02*
X166882D01*
X164382Y59603D02*
X165944Y63353D01*
X167507Y59603*
X165007Y61166D02*
X166882D01*
D02*
D99*
X4868Y26209D03*
X4993Y4244D03*
Y11108D03*
Y17972D03*
Y33323D03*
Y40437D03*
Y47051D03*
Y53791D03*
X7489Y74243D03*
Y84243D03*
Y94243D03*
X17223Y89484D03*
X21092Y11857D03*
X22215Y95600D03*
X26958Y17847D03*
X27831Y95724D03*
X33822D03*
X34043Y58408D03*
X34096Y23782D03*
X34321Y76505D03*
X39563Y95724D03*
X44043Y12231D03*
Y85366D03*
X45179Y95724D03*
X51907Y11857D03*
X53541Y95974D03*
X59032Y69641D03*
X63424Y73329D03*
X67668Y15420D03*
X71637Y73010D03*
X79274Y14921D03*
X80748Y89484D03*
X87363Y73010D03*
X93977Y11108D03*
X101840Y12481D03*
X109078Y2996D03*
X109702Y81247D03*
X110077Y56911D03*
X110826Y32075D03*
X111325Y26084D03*
X112947Y75756D03*
X113322Y17098D03*
X113571Y43113D03*
X118938Y22340D03*
Y80998D03*
X123056Y74009D03*
X124055Y52168D03*
X124429Y24337D03*
X127424Y11482D03*
X129421Y55288D03*
X130794Y89359D03*
X133540Y48174D03*
X137783Y77254D03*
X138407Y90358D03*
X138532Y50920D03*
X138657Y83868D03*
X142401Y26383D03*
X144398Y71263D03*
X145146Y90857D03*
X145396Y77254D03*
Y84617D03*
X148017Y18970D03*
X154382Y24587D03*
Y31950D03*
Y46427D03*
Y53666D03*
X0Y0D02*
M02*
