%FSLAX35Y35*%
%MOIN*%
G04 EasyPC Gerber Version 18.0.8 Build 3632 *
%ADD10C,0.00100*%
%ADD13C,0.00128*%
%ADD11C,0.00500*%
%ADD12C,0.00600*%
X0Y0D02*
D02*
D10*
X7260Y34538D02*
X6478Y35319D01*
X7260Y36100*
X9760Y34538D02*
X8978Y35319D01*
X9760Y36100*
X12260Y34538D02*
X11478Y35319D01*
X12260Y36100*
X13197Y36413D02*
Y35006D01*
X13354Y34694*
X13666Y34538*
X14291*
X14604Y34694*
X14760Y35006*
Y36413*
X15697Y35006D02*
X15854Y34694D01*
X16166Y34538*
X16791*
X17104Y34694*
X17260Y35006*
X17104Y35319*
X16791Y35475*
X16166*
X15854Y35631*
X15697Y35944*
X15854Y36256*
X16166Y36413*
X16791*
X17104Y36256*
X17260Y35944*
X19291Y35475D02*
X19604Y35319D01*
X19760Y35006*
X19604Y34694*
X19291Y34538*
X18197*
Y36413*
X19291*
X19604Y36256*
X19760Y35944*
X19604Y35631*
X19291Y35475*
X18197*
X23197Y34538D02*
Y36413D01*
X24291*
X24604Y36256*
X24760Y35944*
X24604Y35631*
X24291Y35475*
X23197*
X25697Y35163D02*
Y35788D01*
X25854Y36100*
X26010Y36256*
X26322Y36413*
X26635*
X26947Y36256*
X27104Y36100*
X27260Y35788*
Y35163*
X27104Y34850*
X26947Y34694*
X26635Y34538*
X26322*
X26010Y34694*
X25854Y34850*
X25697Y35163*
X28197Y34538D02*
Y36413D01*
X29291*
X29604Y36256*
X29760Y35944*
X29604Y35631*
X29291Y35475*
X28197*
X29291D02*
X29760Y34538D01*
X31478D02*
Y36413D01*
X30697D02*
X32260D01*
X56478Y44538D02*
Y46413D01*
X55697D02*
X57260D01*
X58197Y44538D02*
Y46413D01*
X59760*
X59447Y45475D02*
X58197D01*
Y44538D02*
X59760D01*
X60697D02*
Y46413D01*
X62260*
X61947Y45475D02*
X60697D01*
Y44538D02*
X62260D01*
X63197D02*
Y46413D01*
X64760Y44538*
Y46413*
X65697Y45006D02*
X65854Y44694D01*
X66166Y44538*
X66791*
X67104Y44694*
X67260Y45006*
X67104Y45319*
X66791Y45475*
X66166*
X65854Y45631*
X65697Y45944*
X65854Y46256*
X66166Y46413*
X66791*
X67104Y46256*
X67260Y45944*
X68978Y44538D02*
Y45475D01*
X68197Y46413*
X68978Y45475D02*
X69760Y46413D01*
X73354Y44694D02*
X73666Y44538D01*
X73978*
X74291Y44694*
X74447Y45006*
X74291Y45319*
X73978Y45475*
X73666*
X73978D02*
X74291Y45631D01*
X74447Y45944*
X74291Y46256*
X73978Y46413*
X73666*
X73354Y46256*
X75854Y44538D02*
X76010Y44694D01*
X75854Y44850*
X75697Y44694*
X75854Y44538*
X78510D02*
X79135D01*
X78822D02*
Y46413D01*
X78510Y46100*
X83665Y94778D02*
Y96028D01*
X84289Y95091D02*
X83039Y95716D01*
Y95091D02*
X84289Y95716D01*
X99424Y77181D02*
X99112Y77025D01*
X98956Y76712*
Y76087*
X99112Y75775*
X99424Y75619*
X99737Y75775*
X99893Y76087*
Y76712*
X100049Y77025*
X100362Y77181*
X100674Y77025*
X100830Y76712*
Y76087*
X100674Y75775*
X100362Y75619*
X98956Y74681D02*
X100830D01*
Y73744*
X100674Y73431*
X100518Y73275*
X100206Y73119*
X99580*
X99268Y73275*
X99112Y73431*
X98956Y73744*
Y74681*
Y72181D02*
X100830Y71400D01*
X98956Y70619*
X99737Y71869D02*
Y70931D01*
X99859Y27479D02*
X100641Y29354D01*
X101422Y27479*
X100172Y28260D02*
X101109D01*
X102359Y27479D02*
Y29354D01*
X103922Y27479*
Y29354*
X105641Y27479D02*
Y29354D01*
X104859D02*
X106422D01*
X100733Y36984D02*
X100856Y36738D01*
X101102Y36615*
X101594*
X101841Y36738*
X101963Y36984*
X101841Y37230*
X101594Y37353*
X101102*
X100856Y37476*
X100733Y37722*
X100856Y37968*
X101102Y38091*
X101594*
X101841Y37968*
X101963Y37722*
X102702Y36615D02*
Y38091D01*
X103440*
X103686Y37968*
X103809Y37845*
X103932Y37599*
Y37107*
X103809Y36861*
X103686Y36738*
X103440Y36615*
X102702*
X104670D02*
X105285Y38091D01*
X105900Y36615*
X104916Y37230D02*
X105654D01*
X108221Y37109D02*
X108344Y36863D01*
X108591Y36740*
X109083*
X109329Y36863*
X109452Y37109*
X109329Y37355*
X109083Y37478*
X108591*
X108344Y37601*
X108221Y37847*
X108344Y38093*
X108591Y38216*
X109083*
X109329Y38093*
X109452Y37847*
X111420Y36986D02*
X111297Y36863D01*
X111051Y36740*
X110682*
X110436Y36863*
X110313Y36986*
X110190Y37232*
Y37724*
X110313Y37970*
X110436Y38093*
X110682Y38216*
X111051*
X111297Y38093*
X111420Y37970*
X112158Y38216D02*
Y36740D01*
X113389*
X116772Y79927D02*
X116459Y79770D01*
X116303Y79458*
Y78833*
X116459Y78520*
X116772Y78364*
X117084Y78520*
X117241Y78833*
Y79458*
X117397Y79770*
X117709Y79927*
X118022Y79770*
X118178Y79458*
Y78833*
X118022Y78520*
X117709Y78364*
X116615Y75864D02*
X116459Y76020D01*
X116303Y76333*
Y76802*
X116459Y77114*
X116615Y77270*
X116928Y77427*
X117553*
X117865Y77270*
X118022Y77114*
X118178Y76802*
Y76333*
X118022Y76020*
X117865Y75864*
X118178Y74927D02*
X116303D01*
Y73364*
X142031Y9056D02*
Y11123D01*
X141169D02*
X142892D01*
X143925Y9056D02*
X145648Y11123D01*
X143925D02*
X145648Y9056D01*
X147026D02*
X147715D01*
X147370D02*
Y11123D01*
X147026Y10779*
X141169Y19165D02*
Y21232D01*
X142375*
X142720Y21060*
X142892Y20715*
X142720Y20371*
X142375Y20199*
X141169*
X142375D02*
X142892Y19165D01*
X143925D02*
X145648Y21232D01*
X143925D02*
X145648Y19165D01*
X147026D02*
X147715D01*
X147370D02*
Y21232D01*
X147026Y20888*
X142405Y29150D02*
Y31217D01*
X141544D02*
X143266D01*
X144300Y29150D02*
X146022Y31217D01*
X144300D02*
X146022Y29150D01*
X148433D02*
X147056D01*
X148261Y30355*
X148433Y30700*
X148261Y31044*
X147917Y31217*
X147400*
X147056Y31044*
X141669Y38385D02*
Y40452D01*
X142874*
X143219Y40280*
X143391Y39935*
X143219Y39591*
X142874Y39419*
X141669*
X142874D02*
X143391Y38385D01*
X144424D02*
X146147Y40452D01*
X144424D02*
X146147Y38385D01*
X148558D02*
X147180D01*
X148386Y39591*
X148558Y39935*
X148386Y40280*
X148042Y40452*
X147525*
X147180Y40280*
X141918Y70102D02*
X142091Y69758D01*
X142435Y69586*
X143124*
X143469Y69758*
X143641Y70102*
X143469Y70447*
X143124Y70619*
X142435*
X142091Y70791*
X141918Y71136*
X142091Y71480*
X142435Y71653*
X143124*
X143469Y71480*
X143641Y71136*
X144846Y69758D02*
X145191Y69586D01*
X145535*
X145880Y69758*
X146052Y70102*
X145880Y70447*
X145535Y70619*
X145191*
X145535D02*
X145880Y70791D01*
X146052Y71136*
X145880Y71480*
X145535Y71653*
X145191*
X144846Y71480*
X142667Y59869D02*
X142839Y59524D01*
X143184Y59352*
X143873*
X144217Y59524*
X144389Y59869*
X144217Y60213*
X143873Y60385*
X143184*
X142839Y60557*
X142667Y60902*
X142839Y61246*
X143184Y61419*
X143873*
X144217Y61246*
X144389Y60902*
X146801Y59352D02*
X145423D01*
X146629Y60557*
X146801Y60902*
X146629Y61246*
X146284Y61419*
X145767*
X145423Y61246*
X142917Y49260D02*
X143089Y48916D01*
X143433Y48744*
X144122*
X144467Y48916*
X144639Y49260*
X144467Y49605*
X144122Y49777*
X143433*
X143089Y49949*
X142917Y50294*
X143089Y50638*
X143433Y50811*
X144122*
X144467Y50638*
X144639Y50294*
X146017Y48744D02*
X146706D01*
X146361D02*
Y50811D01*
X146017Y50466*
D02*
D11*
X250Y71033D02*
Y91541D01*
X11266*
Y73533*
X8766Y71033*
X250*
X641Y302D02*
X149656D01*
Y98398*
X641*
Y302*
X697Y250D02*
X140697D01*
Y69069*
X697*
Y250*
X91127Y96796D02*
X78127D01*
Y79796*
X91127*
Y96796*
D02*
D12*
X14254Y80368D02*
Y82730D01*
X18978Y80368D02*
Y82730D01*
X54248Y75443D02*
X56611D01*
X54248Y80167D02*
X56611D01*
X54248Y82057D02*
X56611D01*
X54248Y86782D02*
X56611D01*
D02*
D13*
X16243Y80926D02*
X16143Y80826D01*
X15943Y80726*
X15643*
X15443Y80826*
X15343Y80926*
X15243Y81126*
Y81526*
X15343Y81726*
X15443Y81826*
X15643Y81926*
X15943*
X16143Y81826*
X16243Y81726*
X17643Y80726D02*
X16843D01*
X17543Y81426*
X17643Y81626*
X17543Y81826*
X17343Y81926*
X17043*
X16843Y81826*
X53932Y76857D02*
Y78057D01*
X54632*
X54832Y77957*
X54932Y77757*
X54832Y77557*
X54632Y77457*
X53932*
X54632D02*
X54932Y76857D01*
X55532Y76957D02*
X55732Y76857D01*
X56032*
X56232Y76957*
X56332Y77157*
Y77257*
X56232Y77457*
X56032Y77557*
X55532*
Y78057*
X56332*
X54057Y83846D02*
Y85046D01*
X54757*
X54957Y84946*
X55057Y84746*
X54957Y84546*
X54757Y84446*
X54057*
X54757D02*
X55057Y83846D01*
X56157D02*
Y85046D01*
X55657Y84246*
X56457*
X0Y0D02*
M02*
