%FSLAX35Y35*%
%MOIN*%
G04 EasyPC Gerber Version 18.0.8 Build 3632 *
%ADD10C,0.00100*%
%ADD13C,0.00128*%
%ADD11C,0.00500*%
%ADD12C,0.00600*%
X0Y0D02*
D02*
D10*
X29512Y82085D02*
Y80835D01*
X30137Y81772D02*
X28887Y81148D01*
Y81772D02*
X30137Y81148D01*
X32725Y87107D02*
Y86638D01*
X32881*
X33194Y86794*
X33350Y86950*
X33506Y87263*
Y87575*
X33350Y87888*
X33194Y88044*
X32881Y88200*
X32256*
X31944Y88044*
X31788Y87888*
X31631Y87575*
Y87263*
X31788Y86950*
X31944Y86794*
X32256Y86638*
X33506Y85700D02*
X31631D01*
X33506Y84138*
X31631*
X33506Y83200D02*
X31631D01*
Y82263*
X31788Y81950*
X31944Y81794*
X32256Y81638*
X32881*
X33194Y81794*
X33350Y81950*
X33506Y82263*
Y83200*
X70197Y42442D02*
Y44317D01*
X69104*
X68791Y44160*
X68635Y43848*
X68791Y43535*
X69104Y43379*
X70197*
X69104D02*
X68635Y42442D01*
X67697D02*
Y44317D01*
X66135*
X66447Y43379D02*
X67697D01*
X65197Y42442D02*
Y44317D01*
X64416Y43379*
X63635Y44317*
Y42442*
X62228D02*
X61916Y42598D01*
X61604Y42910*
X61447Y43379*
Y43848*
X61604Y44160*
X61916Y44317*
X62228*
X62541Y44160*
X62697Y43848*
X62541Y43535*
X62228Y43379*
X61916*
X61604Y43535*
X61447Y43848*
X59728Y43379D02*
X59416D01*
X59104Y43535*
X58947Y43848*
X59104Y44160*
X59416Y44317*
X59728*
X60041Y44160*
X60197Y43848*
X60041Y43535*
X59728Y43379*
X60041Y43223*
X60197Y42910*
X60041Y42598*
X59728Y42442*
X59416*
X59104Y42598*
X58947Y42910*
X59104Y43223*
X59416Y43379*
X57697Y44317D02*
X57541Y42442D01*
X56916Y43379*
X56291Y42442*
X56135Y44317*
X116601Y52880D02*
X116847Y53126D01*
X117093Y53618*
Y54356*
X116847Y54848*
X116601Y55094*
X116109Y55341*
X115124*
X114632Y55094*
X114386Y54848*
X114140Y54356*
Y53618*
X114386Y53126*
X114632Y52880*
X115124Y51404D02*
X116109Y51157D01*
X116601Y50665*
Y50173*
X116109Y49681*
X115124Y49435*
X116109Y49681D02*
X117093Y49927D01*
X117585Y50173*
X117831Y50665*
X117585Y51157*
X115370Y45498D02*
X115124Y45990D01*
Y46728*
X115370Y47220*
X115863Y47467*
X116355*
X116847Y47220*
X117093Y46728*
Y45990*
X116847Y45498*
X117093Y42299D02*
Y42545D01*
X114140*
X116355Y39593D02*
X116847Y39346D01*
X117093Y38854*
Y38362*
X116847Y37870*
X116355Y37624*
X115863*
X115370Y37870*
X115124Y38362*
Y38854*
X115370Y39346*
X115863Y39593*
X116355*
X117093Y35656D02*
X115124D01*
X115863D02*
X115370Y35409D01*
X115124Y34917*
Y34425*
X115370Y33933*
X115863Y33687*
X117093*
X116847Y29750D02*
X117093Y29996D01*
Y30488*
Y30980*
X116847Y31472*
X116355Y31719*
X115617*
X115370Y31472*
X115124Y30980*
Y30488*
X115370Y29996*
X115617Y29750*
X115863*
X116109Y29996*
X116355Y30488*
Y30980*
X116109Y31472*
X115863Y31719*
X122459Y67322D02*
X119507Y66091D01*
X122459Y64861*
X121229Y66830D02*
Y65353D01*
X122213Y63385D02*
X122459Y62893D01*
Y61908*
X122213Y61416*
X121721*
X121475Y61908*
Y62893*
X121229Y63385*
X120737*
X120491Y62893*
Y61908*
X120737Y61416*
X122459Y59448D02*
X119507D01*
X121229D02*
X120737Y59202D01*
X120491Y58709*
Y58217*
X120737Y57725*
X121229Y57479*
X122459*
X120491Y55511D02*
X122213D01*
X122459Y55265*
Y54772*
X122213Y54526*
X121475*
X122213D02*
X122459Y54280D01*
Y53788*
X122213Y53542*
X120491*
X122459Y50589D02*
X120491D01*
X119753D02*
X122459Y47637*
X120491D01*
X121229D02*
X120737Y47391D01*
X120491Y46898*
Y46406*
X120737Y45914*
X121229Y45668*
X122459*
Y39763D02*
X119507Y38532D01*
X122459Y37302*
X121229Y39270D02*
Y37794D01*
X122459Y35826D02*
X119507D01*
X121229D02*
X120737Y35580D01*
X120491Y35087*
Y34595*
X120737Y34103*
X121229Y33857*
X122459*
X120491Y31889D02*
X121721D01*
X122213Y31643*
X122459Y31150*
Y30658*
X122213Y30166*
X121721Y29920*
X120491D02*
X122459D01*
X122952Y27706D02*
X123198Y27213D01*
X122952Y26721*
X122459Y26475*
X120491*
X119753D02*
X120737Y24015*
X120491Y23522D01*
Y22784*
X120737Y22292*
X121229Y22046*
X121967*
X122213Y22292*
X122459Y22784*
Y23276*
X122213Y23769*
X121967Y24015*
X121721*
X121475Y23769*
X121229Y23276*
Y22784*
X121475Y22292*
X121721Y22046*
X121967D02*
X122459D01*
D02*
D11*
X94709Y78973D02*
Y15981D01*
X31717*
Y78973*
X94709*
D02*
D12*
X134363Y40872D02*
X132001D01*
X134363Y45597D02*
X132001D01*
X134363Y47861D02*
X132001D01*
X134363Y52586D02*
X132001D01*
X134363Y54726D02*
X132001D01*
X134363Y59450D02*
X132001D01*
D02*
D13*
X134555Y42661D02*
Y43861D01*
X133855*
X133655Y43761*
X133555Y43561*
X133655Y43361*
X133855Y43261*
X134555*
X133855D02*
X133555Y42661D01*
X132655Y43261D02*
X132455D01*
X132255Y43361*
X132155Y43561*
X132255Y43761*
X132455Y43861*
X132655*
X132855Y43761*
X132955Y43561*
X132855Y43361*
X132655Y43261*
X132855Y43161*
X132955Y42961*
X132855Y42761*
X132655Y42661*
X132455*
X132255Y42761*
X132155Y42961*
X132255Y43161*
X132455Y43261*
X134555Y49650D02*
Y50850D01*
X133855*
X133655Y50750*
X133555Y50550*
X133655Y50350*
X133855Y50250*
X134555*
X133855D02*
X133555Y49650D01*
X132955D02*
X132155Y50850D01*
X132955*
X134555Y56514D02*
Y57714D01*
X133855*
X133655Y57614*
X133555Y57414*
X133655Y57214*
X133855Y57114*
X134555*
X133855D02*
X133555Y56514D01*
X132955Y56814D02*
X132855Y57014D01*
X132655Y57114*
X132455*
X132255Y57014*
X132155Y56814*
X132255Y56614*
X132455Y56514*
X132655*
X132855Y56614*
X132955Y56814*
Y57114*
X132855Y57414*
X132655Y57614*
X132455Y57714*
X0Y0D02*
M02*
