%FSLAX35Y35*%
%MOIN*%
G04 EasyPC Gerber Version 18.0.8 Build 3632 *
%AMT79*0 Bullet Pad at angle 0*21,1,0.05331,0.06209,0,0,0*%
%ADD79T79*%
%ADD29R,0.04150X0.05724*%
%ADD78C,0.05331*%
%ADD25C,0.07000*%
%AMT77*0 Bullet Pad at angle 180*21,1,0.05331,0.06209,0,0,180*%
%ADD77T77*%
X0Y0D02*
D02*
D25*
X5758Y76541D03*
Y86541D03*
X14494Y93780D03*
X20485Y94154D03*
X24104Y81799D03*
X26475Y94154D03*
X37832Y94654D03*
X43698D03*
X49439D03*
X54930D03*
X60921D03*
X97114D03*
X102855Y23890D03*
Y47603D03*
Y53469D03*
X103104Y41737D03*
Y94778D03*
X104976Y79428D03*
X105101Y73312D03*
X108845Y94778D03*
X110343Y41737D03*
Y47478D03*
Y53469D03*
X113089Y73936D03*
X113213Y79802D03*
X114586Y94778D03*
X120577Y94654D03*
X124446Y80800D03*
X124570Y86916D03*
X124695Y75309D03*
X126567Y94654D03*
X130686Y75309D03*
Y87165D03*
X130811Y81050D03*
X136801Y93530D03*
X136926Y87290D03*
X137051Y81300D03*
X137300Y75309D03*
X143041Y93530D03*
X143291Y75184D03*
Y81424D03*
Y87540D03*
X144165Y14904D03*
X144414Y4920D03*
X144789Y25388D03*
Y44483D03*
Y55216D03*
Y65574D03*
X144913Y34873D03*
D02*
D29*
X129639Y43235D03*
Y50224D03*
Y57088D03*
X136725Y43235D03*
Y50224D03*
Y57088D03*
D02*
D77*
X35654Y76762D03*
D02*
D78*
Y73658D03*
D02*
D77*
X43528Y76762D03*
D02*
D78*
Y73658D03*
D02*
D77*
X51402Y76762D03*
D02*
D78*
Y73658D03*
D02*
D77*
X59276Y76762D03*
D02*
D78*
Y73658D03*
D02*
D77*
X67150Y76762D03*
D02*
D78*
Y73658D03*
D02*
D77*
X75024Y76762D03*
D02*
D78*
Y73658D03*
D02*
D77*
X82898Y76762D03*
D02*
D78*
Y73658D03*
D02*
D77*
X90772Y76762D03*
D02*
D78*
Y73658D03*
D02*
D79*
X35688Y18335D03*
D02*
D78*
Y21439D03*
D02*
D79*
X43562Y18335D03*
D02*
D78*
Y21439D03*
D02*
D79*
X51436Y18335D03*
D02*
D78*
Y21439D03*
D02*
D79*
X59310Y18335D03*
D02*
D78*
Y21439D03*
D02*
D79*
X67184Y18335D03*
D02*
D78*
Y21439D03*
D02*
D79*
X75058Y18335D03*
D02*
D78*
Y21439D03*
D02*
D79*
X82932Y18335D03*
D02*
D78*
Y21439D03*
D02*
D79*
X90806Y18335D03*
D02*
D78*
Y21439D03*
X0Y0D02*
M02*
