%FSLAX35Y35*%
%MOIN*%
G04 EasyPC Gerber Version 18.0.8 Build 3632 *
%ADD11C,0.00500*%
%ADD80C,0.10000*%
X0Y0D02*
D02*
D11*
X15758Y82479D02*
X17320Y86229D01*
X18883Y82479*
X16383Y84041D02*
X18258D01*
X15758Y92479D02*
X17320Y96229D01*
X18883Y92479*
X16383Y94041D02*
X18258D01*
X24494Y99717D02*
X26057Y103467D01*
X27619Y99717*
X25119Y101280D02*
X26994D01*
X29053Y80376D02*
X29678Y80063D01*
X29991Y79439*
X29678Y78813*
X29053Y78501*
X26865*
Y82251*
X29053*
X29678Y81939*
X29991Y81313*
X29678Y80689*
X29053Y80376*
X26865*
X30485Y100092D02*
X32047Y103842D01*
X33610Y100092*
X31110Y101654D02*
X32985D01*
X34104Y87736D02*
X35667Y91486D01*
X37229Y87736*
X34729Y89299D02*
X36604D01*
X37885Y65025D02*
X38510Y64713D01*
X38822Y64088*
X38510Y63463*
X37885Y63150*
X35697*
Y66900*
X37885*
X38510Y66588*
X38822Y65963*
X38510Y65338*
X37885Y65025*
X35697*
X37938Y30399D02*
X38563Y30087D01*
X38876Y29462*
X38563Y28837*
X37938Y28524*
X35750*
Y32274*
X37938*
X38563Y31962*
X38876Y31337*
X38563Y30712*
X37938Y30399*
X35750*
X36475Y100092D02*
X38038Y103842D01*
X39600Y100092*
X37100Y101654D02*
X38975D01*
X47024Y94354D02*
X47650Y94041D01*
X47962Y93417*
X47650Y92791*
X47024Y92479*
X44837*
Y96229*
X47024*
X47650Y95917*
X47962Y95291*
X47650Y94667*
X47024Y94354*
X44837*
X47885Y18848D02*
X48510Y18535D01*
X48822Y17911*
X48510Y17285*
X47885Y16973*
X45697*
Y20723*
X47885*
X48510Y20411*
X48822Y19785*
X48510Y19161*
X47885Y18848*
X45697*
X47885Y67396D02*
X48510Y67084D01*
X48822Y66459*
X48510Y65834*
X47885Y65521*
X45697*
Y69271*
X47885*
X48510Y68959*
X48822Y68334*
X48510Y67709*
X47885Y67396*
X45697*
X47832Y100591D02*
X49395Y104341D01*
X50957Y100591*
X48457Y102154D02*
X50332D01*
X55749Y18474D02*
X56374Y18161D01*
X56687Y17536*
X56374Y16911*
X55749Y16598*
X53562*
Y20348*
X55749*
X56374Y20036*
X56687Y19411*
X56374Y18786*
X55749Y18474*
X53562*
X53698Y100591D02*
X55261Y104341D01*
X56823Y100591*
X54323Y102154D02*
X56198D01*
X57885Y66897D02*
X58510Y66585D01*
X58822Y65960*
X58510Y65335*
X57885Y65022*
X55697*
Y68772*
X57885*
X58510Y68460*
X58822Y67835*
X58510Y67210*
X57885Y66897*
X55697*
X59439Y100591D02*
X61002Y104341D01*
X62564Y100591*
X60064Y102154D02*
X61939D01*
X62126Y11881D02*
X62751Y11569D01*
X63063Y10944*
X62751Y10319*
X62126Y10006*
X59938*
Y13756*
X62126*
X62751Y13444*
X63063Y12819*
X62751Y12194*
X62126Y11881*
X59938*
X62874Y76257D02*
X63500Y75945D01*
X63812Y75320*
X63500Y74695*
X62874Y74382*
X60687*
Y78132*
X62874*
X63500Y77820*
X63812Y77195*
X63500Y76570*
X62874Y76257*
X60687*
X67118Y38692D02*
X67743Y38379D01*
X68056Y37754*
X67743Y37129*
X67118Y36817*
X64930*
Y40567*
X67118*
X67743Y40254*
X68056Y39629*
X67743Y39004*
X67118Y38692*
X64930*
Y100591D02*
X66493Y104341D01*
X68056Y100591*
X65556Y102154D02*
X67430D01*
X68204Y78696D02*
X67892Y78383D01*
X67267Y78071*
X66329*
X65704Y78383*
X65392Y78696*
X65079Y79321*
Y80571*
X65392Y81196*
X65704Y81509*
X66329Y81821*
X67267*
X67892Y81509*
X68204Y81196*
X67991Y56164D02*
X68617Y55852D01*
X68929Y55227*
X68617Y54602*
X67991Y54289*
X65804*
Y58039*
X67991*
X68617Y57727*
X68929Y57102*
X68617Y56477*
X67991Y56164*
X65804*
X72448Y20787D02*
X72135Y20475D01*
X71510Y20162*
X70572*
X69948Y20475*
X69635Y20787*
X69322Y21412*
Y22662*
X69635Y23287*
X69948Y23600*
X70572Y23912*
X71510*
X72135Y23600*
X72448Y23287*
X71611Y14355D02*
X72236Y14043D01*
X72548Y13418*
X72236Y12793*
X71611Y12480*
X69423*
Y16230*
X71611*
X72236Y15918*
X72548Y15293*
X72236Y14668*
X71611Y14355*
X69423*
X70921Y100591D02*
X72483Y104341D01*
X74046Y100591*
X71546Y102154D02*
X73421D01*
X76417Y78377D02*
X76105Y78065D01*
X75480Y77752*
X74542*
X73917Y78065*
X73605Y78377*
X73292Y79002*
Y80252*
X73605Y80877*
X73917Y81190*
X74542Y81502*
X75480*
X76105Y81190*
X76417Y80877*
X78600Y102466D02*
X79225Y102154D01*
X79537Y101529*
X79225Y100904*
X78600Y100591*
X76412*
Y104341*
X78600*
X79225Y104029*
X79537Y103404*
X79225Y102779*
X78600Y102466*
X76412*
X84054Y20288D02*
X83742Y19976D01*
X83117Y19663*
X82179*
X81554Y19976*
X81242Y20288*
X80929Y20913*
Y22163*
X81242Y22788*
X81554Y23101*
X82179Y23413*
X83117*
X83742Y23101*
X84054Y22788*
X84590Y96101D02*
X85215Y95789D01*
X85528Y95164*
X85215Y94539*
X84590Y94226*
X82403*
Y97976*
X84590*
X85215Y97664*
X85528Y97039*
X85215Y96414*
X84590Y96101*
X82403*
X92143Y78377D02*
X91830Y78065D01*
X91205Y77752*
X90267*
X89643Y78065*
X89330Y78377*
X89017Y79002*
Y80252*
X89330Y80877*
X89643Y81190*
X90267Y81502*
X91205*
X91830Y81190*
X92143Y80877*
X97819Y17725D02*
X98444Y17412D01*
X98757Y16787*
X98444Y16162*
X97819Y15850*
X95632*
Y19600*
X97819*
X98444Y19287*
X98757Y18662*
X98444Y18037*
X97819Y17725*
X95632*
X97885Y64651D02*
X98510Y64338D01*
X98822Y63713*
X98510Y63088*
X97885Y62776*
X95697*
Y66526*
X97885*
X98510Y66213*
X98822Y65588*
X98510Y64963*
X97885Y64651*
X95697*
X105682Y19098D02*
X106307Y18785D01*
X106620Y18160*
X106307Y17535*
X105682Y17222*
X103494*
Y20972*
X105682*
X106307Y20660*
X106620Y20035*
X106307Y19410*
X105682Y19098*
X103494*
X107114Y100591D02*
X108676Y104341D01*
X110239Y100591*
X107739Y102154D02*
X109614D01*
X112855Y29828D02*
X114417Y33578D01*
X115980Y29828*
X113480Y31390D02*
X115355D01*
X112855Y53540D02*
X114417Y57290D01*
X115980Y53540*
X113480Y55103D02*
X115355D01*
X112855Y59406D02*
X114417Y63156D01*
X115980Y59406*
X113480Y60969D02*
X115355D01*
X113104Y47674D02*
X114667Y51424D01*
X116230Y47674*
X113730Y49237D02*
X115604D01*
X113104Y100716D02*
X114667Y104466D01*
X116230Y100716*
X113730Y102278D02*
X115604D01*
X114976Y85365D02*
X116539Y89115D01*
X118102Y85365*
X115602Y86928D02*
X117476D01*
X115101Y79250D02*
X116664Y83000D01*
X118226Y79250*
X115726Y80812D02*
X117601D01*
X117885Y19472D02*
X118510Y19159D01*
X118822Y18535*
X118510Y17909*
X117885Y17597*
X115697*
Y21347*
X117885*
X118510Y21035*
X118822Y20409*
X118510Y19785*
X117885Y19472*
X115697*
X118037Y66648D02*
X118663Y66335D01*
X118975Y65710*
X118663Y65085*
X118037Y64772*
X115850*
Y68522*
X118037*
X118663Y68210*
X118975Y67585*
X118663Y66960*
X118037Y66648*
X115850*
X118845Y100716D02*
X120408Y104466D01*
X121970Y100716*
X119470Y102278D02*
X121345D01*
X120343Y47674D02*
X121906Y51424D01*
X123468Y47674*
X120968Y49237D02*
X122843D01*
X120343Y53415D02*
X121906Y57165D01*
X123468Y53415*
X120968Y54978D02*
X122843D01*
X120343Y59406D02*
X121906Y63156D01*
X123468Y59406*
X120968Y60969D02*
X122843D01*
X123089Y79874D02*
X124651Y83624D01*
X126214Y79874*
X123714Y81436D02*
X125589D01*
X123213Y85739D02*
X124776Y89489D01*
X126339Y85739*
X123839Y87302D02*
X125713D01*
X124586Y100716D02*
X126149Y104466D01*
X127711Y100716*
X125211Y102278D02*
X127086D01*
X127885Y19222D02*
X128510Y18910D01*
X128822Y18285*
X128510Y17660*
X127885Y17347*
X125697*
Y21097*
X127885*
X128510Y20785*
X128822Y20160*
X128510Y19535*
X127885Y19222*
X125697*
X130577Y100591D02*
X132139Y104341D01*
X133702Y100591*
X131202Y102154D02*
X133077D01*
X134446Y86738D02*
X136008Y90488D01*
X137571Y86738*
X135071Y88300D02*
X136946D01*
X134570Y92853D02*
X136133Y96603D01*
X137696Y92853*
X135196Y94416D02*
X137070D01*
X134695Y81246D02*
X136258Y84996D01*
X137820Y81246*
X135320Y82809D02*
X137195D01*
X137756Y57911D02*
X138381Y57599D01*
X138694Y56974*
X138381Y56349*
X137756Y56036*
X135569*
Y59786*
X137756*
X138381Y59474*
X138694Y58849*
X138381Y58224*
X137756Y57911*
X135569*
X137885Y65025D02*
X138510Y64713D01*
X138822Y64088*
X138510Y63463*
X137885Y63150*
X135697*
Y66900*
X137885*
X138510Y66588*
X138822Y65963*
X138510Y65338*
X137885Y65025*
X135697*
X138256Y50922D02*
X138881Y50610D01*
X139193Y49985*
X138881Y49360*
X138256Y49047*
X136068*
Y52797*
X138256*
X138881Y52485*
X139193Y51860*
X138881Y51235*
X138256Y50922*
X136068*
X136567Y100591D02*
X138130Y104341D01*
X139693Y100591*
X137193Y102154D02*
X139067D01*
X140686Y81246D02*
X142248Y84996D01*
X143811Y81246*
X141311Y82809D02*
X143186D01*
X140686Y93103D02*
X142248Y96853D01*
X143811Y93103*
X141311Y94665D02*
X143186D01*
X140811Y86987D02*
X142373Y90737D01*
X143936Y86987*
X141436Y88550D02*
X143311D01*
X148240Y77880D02*
X148865Y77567D01*
X149178Y76943*
X148865Y76317*
X148240Y76005*
X146052*
Y79755*
X148240*
X148865Y79443*
X149178Y78817*
X148865Y78193*
X148240Y77880*
X146052*
X146801Y99468D02*
X148364Y103218D01*
X149926Y99468*
X147426Y101030D02*
X149301D01*
X146926Y93228D02*
X148489Y96978D01*
X150051Y93228*
X147551Y94790D02*
X149426D01*
X147051Y87237D02*
X148613Y90987D01*
X150176Y87237*
X147676Y88800D02*
X149551D01*
X147300Y81246D02*
X148863Y84996D01*
X150426Y81246*
X147926Y82809D02*
X149800D01*
X153041Y99468D02*
X154604Y103218D01*
X156167Y99468*
X153667Y101030D02*
X155541D01*
X153291Y81122D02*
X154854Y84872D01*
X156416Y81122*
X153916Y82684D02*
X155791D01*
X153291Y87362D02*
X154854Y91112D01*
X156416Y87362*
X153916Y88924D02*
X155791D01*
X153291Y93477D02*
X154854Y97227D01*
X156416Y93477*
X153916Y95040D02*
X155791D01*
X154165Y20842D02*
X155727Y24592D01*
X157290Y20842*
X154790Y22404D02*
X156665D01*
X154414Y10857D02*
X155977Y14607D01*
X157539Y10857*
X155039Y12420D02*
X156914D01*
X154789Y31325D02*
X156351Y35075D01*
X157914Y31325*
X155414Y32888D02*
X157289D01*
X154789Y50420D02*
X156351Y54170D01*
X157914Y50420*
X155414Y51983D02*
X157289D01*
X154789Y61153D02*
X156351Y64903D01*
X157914Y61153*
X155414Y62716D02*
X157289D01*
X154789Y71512D02*
X156351Y75262D01*
X157914Y71512*
X155414Y73074D02*
X157289D01*
X154913Y40810D02*
X156476Y44560D01*
X158039Y40810*
X155539Y42373D02*
X157413D01*
D02*
D80*
X5758Y76541D03*
Y86541D03*
X14494Y93780D03*
X16865Y72563D03*
X20485Y94154D03*
X24104Y81799D03*
X25697Y57213D03*
X25750Y22587D03*
X26475Y94154D03*
X34837Y86541D03*
X35697Y11035D03*
Y59584D03*
X37832Y94654D03*
X43562Y10661D03*
X43698Y94654D03*
X45697Y59085D03*
X49439Y94654D03*
X49938Y4069D03*
X50687Y68445D03*
X54930Y30879D03*
Y94654D03*
X55079Y72133D03*
X55804Y48352D03*
X59322Y14225D03*
X59423Y6543D03*
X60921Y94654D03*
X63292Y71815D03*
X66412Y94654D03*
X70929Y13726D03*
X72403Y88289D03*
X79017Y71815D03*
X85632Y9912D03*
X85697Y56838D03*
X93494Y11285D03*
X97114Y94654D03*
X102855Y23890D03*
Y47603D03*
Y53469D03*
X103104Y41737D03*
Y94778D03*
X104976Y79428D03*
X105101Y73312D03*
X105697Y11659D03*
X105850Y58835D03*
X108845Y94778D03*
X110343Y41737D03*
Y47478D03*
Y53469D03*
X113089Y73936D03*
X113213Y79802D03*
X114586Y94778D03*
X115697Y11410D03*
X120577Y94654D03*
X124446Y80800D03*
X124570Y86916D03*
X124695Y75309D03*
X125569Y50099D03*
X125697Y57213D03*
X126068Y43110D03*
X126567Y94654D03*
X130686Y75309D03*
Y87165D03*
X130811Y81050D03*
X136052Y70067D03*
X136801Y93530D03*
X136926Y87290D03*
X137051Y81300D03*
X137300Y75309D03*
X143041Y93530D03*
X143291Y75184D03*
Y81424D03*
Y87540D03*
X144165Y14904D03*
X144414Y4920D03*
X144789Y25388D03*
Y44483D03*
Y55216D03*
Y65574D03*
X144913Y34873D03*
X0Y0D02*
M02*
