%FSLAX35Y35*%
%MOIN*%
G04 EasyPC Gerber Version 18.0.8 Build 3632 *
%ADD18R,0.03150X0.04724*%
%ADD16R,0.03937X0.05906*%
%ADD17R,0.03937X0.06102*%
%ADD20C,0.01000*%
%ADD71C,0.01500*%
%ADD24C,0.01969*%
%ADD21C,0.02500*%
%ADD22C,0.03000*%
%ADD70C,0.03200*%
%ADD23C,0.04000*%
%ADD14C,0.06000*%
%ADD15C,0.06000*%
%ADD19R,0.04724X0.03150*%
X0Y0D02*
D02*
D14*
X5758Y76541D03*
Y86541D03*
X14494Y93780D03*
X20485Y94154D03*
X24104Y81799D03*
X26475Y94154D03*
X37832Y94654D03*
X43698D03*
X49439D03*
X54930D03*
X60921D03*
X97114D03*
X102855Y23890D03*
Y47603D03*
Y53469D03*
X103104Y41737D03*
Y94778D03*
X104976Y79428D03*
X105101Y73312D03*
X108845Y94778D03*
X110343Y41737D03*
Y47478D03*
Y53469D03*
X113089Y73936D03*
X113213Y79802D03*
X114586Y94778D03*
X120577Y94654D03*
X124446Y80800D03*
X124570Y86916D03*
X124695Y75309D03*
X126567Y94654D03*
X130686Y75309D03*
Y87165D03*
X130811Y81050D03*
X136801Y93530D03*
X136926Y87290D03*
X137051Y81300D03*
X137300Y75309D03*
X143041Y93530D03*
X143291Y75184D03*
Y81424D03*
Y87540D03*
X144165Y14904D03*
X144414Y4920D03*
X144789Y25388D03*
Y44483D03*
Y55216D03*
Y65574D03*
X144913Y34873D03*
D02*
D15*
X5697Y4069D03*
Y64069D03*
X15697Y4069D03*
Y54069D03*
Y64069D03*
X25697Y4069D03*
Y64069D03*
X35697Y4069D03*
Y54069D03*
Y64069D03*
X45697Y4069D03*
Y54069D03*
Y64069D03*
X55697Y4069D03*
Y54069D03*
Y64069D03*
X65697Y4069D03*
Y64069D03*
X75697Y4069D03*
Y64069D03*
X85697Y4069D03*
Y64069D03*
X95697Y4069D03*
Y64069D03*
X105697Y4069D03*
Y64069D03*
X115697Y4069D03*
Y64069D03*
X125697Y4069D03*
Y64069D03*
X135697Y4069D03*
Y64069D03*
D02*
D16*
X88627Y83296D03*
Y93139D03*
D02*
D17*
X80753Y83296D03*
Y93139D03*
D02*
D18*
X51886Y77805D03*
Y84420D03*
X58973Y77805D03*
Y84420D03*
D02*
D19*
X16616Y78006D03*
Y85093D03*
D02*
D70*
X16865Y72563D03*
X25697Y57213D03*
X25750Y22587D03*
X34837Y86541D03*
X35697Y11035D03*
Y59584D03*
X43562Y10661D03*
X45697Y59085D03*
X49938Y4069D03*
X50687Y68445D03*
X54930Y30879D03*
X55079Y72133D03*
X55804Y48352D03*
X59423Y6543D03*
X63292Y71815D03*
X66412Y94654D03*
X70929Y13726D03*
X72403Y88289D03*
X79017Y71815D03*
X85632Y9912D03*
X85697Y56838D03*
X93494Y11285D03*
X105697Y11659D03*
X105850Y58835D03*
X115697Y11410D03*
X125569Y50099D03*
X125697Y57213D03*
X126068Y43110D03*
X136052Y70067D03*
D02*
D71*
X29096Y64069D02*
X25697D01*
X35697Y4069D02*
Y11035D01*
Y64069D02*
Y59584D01*
X45697Y4069D02*
X49938D01*
X45697Y64069D02*
Y59085D01*
X50687Y68445D02*
Y25513D01*
X80141*
Y18898*
X109344*
Y19023*
X135678*
X135697Y11535*
Y4069*
X51886Y77805D02*
Y84420D01*
Y88788*
X54431*
X54930Y30879D02*
X120202D01*
Y43110*
X126068*
X55697Y4069D02*
X57551D01*
Y6543*
X59423*
X55804Y48352D02*
Y34623D01*
X116084*
Y50099*
X125569*
X63292Y71815D02*
X63542D01*
Y64069*
X65697*
X70929Y13726D02*
Y4069D01*
X75697*
Y64069D02*
Y52969D01*
X90874*
Y68819*
X110468*
X75697Y64069D02*
Y68140D01*
X82761*
Y75184*
X58973*
Y77805*
X79017Y71815D02*
X73697D01*
Y69473*
X70697*
Y58973*
X60197*
Y64069*
X55697*
X80753Y83296D02*
Y81924D01*
Y93139D02*
X72278D01*
Y88289*
X72403*
X85697Y4069D02*
Y9912D01*
X85632*
X85697Y64069D02*
Y56838D01*
Y64069D02*
Y72813D01*
X96490*
Y75184*
X88627Y83296D02*
X104976D01*
Y79428*
X88627Y93139D02*
Y88663D01*
X112839*
Y79802*
X113213*
X95697Y4069D02*
Y3922D01*
X93494*
Y11285*
X96490Y75184D02*
X85382D01*
Y77431*
X62169*
Y84420*
X58973*
X102855Y53469D02*
Y41737D01*
X103104*
X104976Y79428D02*
X96490D01*
Y75184*
X105697Y4069D02*
Y11659D01*
Y64069D02*
Y64077D01*
X105850*
Y58835*
X110468Y68819D02*
Y41737D01*
X110343*
X110468Y68819D02*
X113089D01*
Y73936*
Y79802*
X113213*
X115697Y4069D02*
Y11410D01*
X125697Y4069D02*
Y16277D01*
X111965*
Y16152*
X77644*
Y22268*
X47941*
Y49225*
X40952*
Y72133*
X55079*
X135697Y64069D02*
Y66323D01*
X136052*
Y70067*
D02*
D20*
X43562Y10661D02*
X65697D01*
Y4069*
D02*
D21*
X5758Y76541D02*
Y72298D01*
X5697*
Y64069*
X5758Y86541D02*
X10376D01*
X24104*
X16865Y72563D02*
X16616D01*
Y78006*
X24104Y81799D02*
Y86541D01*
X34837*
X43698Y94654D02*
X37832D01*
X46818Y88788D02*
Y94654D01*
X60921*
X46818Y88788D02*
Y75309D01*
X29096*
Y64069*
X54431Y88788D02*
X46818D01*
X60921Y94654D02*
X66412D01*
X80753Y81924D02*
X65164D01*
Y88788*
X54431*
X125697Y64069D02*
Y57213D01*
D02*
D22*
X59322Y14225D03*
D02*
D23*
X25697Y64069D02*
Y57213D01*
X25750Y22587D02*
Y17151D01*
X59322*
Y14225*
D02*
D24*
X10376Y86541D02*
Y58960D01*
X5697*
Y4069*
X0Y0D02*
M02*
