%FSLAX35Y35*%
%MOIN*%
G04 EasyPC Gerber Version 18.0.8 Build 3632 *
%ADD29R,0.04150X0.05724*%
%ADD27R,0.04937X0.06906*%
%ADD28R,0.04937X0.07102*%
%ADD25C,0.07000*%
%ADD26C,0.07000*%
%ADD72R,0.05724X0.04150*%
X0Y0D02*
D02*
D25*
X5758Y76541D03*
Y86541D03*
X14494Y93780D03*
X20485Y94154D03*
X24104Y81799D03*
X26475Y94154D03*
X37832Y94654D03*
X43698D03*
X49439D03*
X54930D03*
X60921D03*
X97114D03*
X102855Y23890D03*
Y47603D03*
Y53469D03*
X103104Y41737D03*
Y94778D03*
X104976Y79428D03*
X105101Y73312D03*
X108845Y94778D03*
X110343Y41737D03*
Y47478D03*
Y53469D03*
X113089Y73936D03*
X113213Y79802D03*
X114586Y94778D03*
X120577Y94654D03*
X124446Y80800D03*
X124570Y86916D03*
X124695Y75309D03*
X126567Y94654D03*
X130686Y75309D03*
Y87165D03*
X130811Y81050D03*
X136801Y93530D03*
X136926Y87290D03*
X137051Y81300D03*
X137300Y75309D03*
X143041Y93530D03*
X143291Y75184D03*
Y81424D03*
Y87540D03*
X144165Y14904D03*
X144414Y4920D03*
X144789Y25388D03*
Y44483D03*
Y55216D03*
Y65574D03*
X144913Y34873D03*
D02*
D26*
X5697Y4069D03*
Y64069D03*
X15697Y4069D03*
Y54069D03*
Y64069D03*
X25697Y4069D03*
Y64069D03*
X35697Y4069D03*
Y54069D03*
Y64069D03*
X45697Y4069D03*
Y54069D03*
Y64069D03*
X55697Y4069D03*
Y54069D03*
Y64069D03*
X65697Y4069D03*
Y64069D03*
X75697Y4069D03*
Y64069D03*
X85697Y4069D03*
Y64069D03*
X95697Y4069D03*
Y64069D03*
X105697Y4069D03*
Y64069D03*
X115697Y4069D03*
Y64069D03*
X125697Y4069D03*
Y64069D03*
X135697Y4069D03*
Y64069D03*
D02*
D27*
X88627Y83296D03*
Y93139D03*
D02*
D28*
X80753Y83296D03*
Y93139D03*
D02*
D29*
X51886Y77805D03*
Y84420D03*
X58973Y77805D03*
Y84420D03*
D02*
D72*
X16616Y78006D03*
Y85093D03*
X0Y0D02*
M02*
