%FSLAX35Y35*%
%MOIN*%
G04 EasyPC Gerber Version 18.0.8 Build 3632 *
%AMT89*0 Bullet Pad at angle 0*21,1,0.05331,0.06209,0,0,0*%
%ADD89T89*%
%ADD74R,0.04150X0.05724*%
%ADD91R,0.10700X0.12100*%
%ADD88C,0.05331*%
%ADD90R,0.07500X0.02400*%
%ADD28C,0.07000*%
%ADD75R,0.05724X0.04150*%
%AMT87*0 Bullet Pad at angle 180*21,1,0.05331,0.06209,0,0,180*%
%ADD87T87*%
X0Y0D02*
D02*
D28*
X4868Y26209D03*
X4993Y4244D03*
Y11108D03*
Y17972D03*
Y33323D03*
Y40437D03*
Y47051D03*
Y53791D03*
X7489Y74243D03*
Y84243D03*
Y94243D03*
X32699Y95724D03*
X39189D03*
X45304D03*
X109702Y81247D03*
X112947Y75756D03*
X113322Y17098D03*
X118938Y80998D03*
X123056Y74009D03*
X139156Y79999D03*
X145146Y90857D03*
X145396Y77254D03*
Y84617D03*
X154382Y24587D03*
Y31950D03*
Y46427D03*
Y53666D03*
D02*
D74*
X129996Y18970D03*
X130121Y26084D03*
X137083Y18970D03*
X137208Y26084D03*
D02*
D75*
X144023Y50622D03*
Y57708D03*
D02*
D87*
X43999Y77958D03*
D02*
D88*
Y74854D03*
D02*
D87*
X51873Y77958D03*
D02*
D88*
Y74854D03*
D02*
D87*
X59747Y77958D03*
D02*
D88*
Y74854D03*
D02*
D87*
X67621Y77958D03*
D02*
D88*
Y74854D03*
D02*
D87*
X75495Y77958D03*
D02*
D88*
Y74854D03*
D02*
D87*
X83369Y77958D03*
D02*
D88*
Y74854D03*
D02*
D87*
X91243Y77958D03*
D02*
D88*
Y74854D03*
D02*
D87*
X99117Y77958D03*
D02*
D88*
Y74854D03*
D02*
D89*
X44033Y19531D03*
D02*
D88*
Y22635D03*
D02*
D89*
X51907Y19531D03*
D02*
D88*
Y22635D03*
D02*
D89*
X59781Y19531D03*
D02*
D88*
Y22635D03*
D02*
D89*
X67655Y19531D03*
D02*
D88*
Y22635D03*
D02*
D89*
X75529Y19531D03*
D02*
D88*
Y22635D03*
D02*
D89*
X83403Y19531D03*
D02*
D88*
Y22635D03*
D02*
D89*
X91277Y19531D03*
D02*
D88*
Y22635D03*
D02*
D89*
X99151Y19531D03*
D02*
D88*
Y22635D03*
D02*
D90*
X121941Y30313D03*
Y32913D03*
Y35513D03*
Y38013D03*
Y40613D03*
Y43113D03*
Y45713D03*
Y48313D03*
X144141Y30313D03*
Y32913D03*
Y35513D03*
Y38013D03*
Y40613D03*
Y43113D03*
Y45713D03*
Y48313D03*
D02*
D91*
X133041Y39313D03*
X0Y0D02*
M02*
