%FSLAX35Y35*%
%MOIN*%
G04 EasyPC Gerber Version 18.0.8 Build 3632 *
%AMT83*0 Bullet Pad at angle 0*21,1,0.04331,0.05709,0,0,0*%
%ADD83T83*%
%ADD18R,0.03150X0.04724*%
%ADD85R,0.09700X0.11100*%
%ADD11C,0.00500*%
%ADD21C,0.01000*%
%ADD70C,0.01500*%
%ADD25C,0.02500*%
%ADD22C,0.03000*%
%ADD20C,0.03200*%
%ADD86C,0.03937*%
%ADD24C,0.04000*%
%ADD82C,0.04331*%
%ADD71C,0.04800*%
%ADD26C,0.05000*%
%ADD23C,0.05600*%
%ADD14C,0.06000*%
%ADD84R,0.06500X0.01400*%
%ADD19R,0.04724X0.03150*%
%AMT81*0 Bullet Pad at angle 180*21,1,0.04331,0.05709,0,0,180*%
%ADD81T81*%
X0Y0D02*
D02*
D11*
X50361Y71137D02*
X38688D01*
Y27582*
X106082*
Y71137*
X88801*
G75*
G02X85924I-1439J1873*
G01*
X73076*
G75*
G02X70199I-1439J1873*
G01*
X64304*
G75*
G02X62545I-879J2192*
G01*
X61818*
G75*
G02X62194Y69641I-2785J-1496*
G01*
G75*
G02X55998Y68753I-3162*
G01*
X51873*
G75*
G02X50361Y70265J1512*
G01*
Y71137*
G36*
X38688*
Y27582*
X106082*
Y71137*
X88801*
G75*
G02X85924I-1439J1873*
G01*
X73076*
G75*
G02X70199I-1439J1873*
G01*
X64304*
G75*
G02X62545I-879J2192*
G01*
X61818*
G75*
G02X62194Y69641I-2785J-1496*
G01*
G75*
G02X55998Y68753I-3162*
G01*
X51873*
G75*
G02X50361Y70265J1512*
G01*
Y71137*
G37*
D02*
D14*
X4868Y26209D03*
X4993Y4244D03*
Y11108D03*
Y17972D03*
Y33323D03*
Y40437D03*
Y47051D03*
Y53791D03*
X7489Y74243D03*
Y84243D03*
Y94243D03*
X32699Y95724D03*
X39189D03*
X45304D03*
X109702Y81247D03*
X112947Y75756D03*
X113322Y17098D03*
X118938Y80998D03*
X123056Y74009D03*
X139156Y79999D03*
X145146Y90857D03*
X145396Y77254D03*
Y84617D03*
X154382Y24587D03*
Y31950D03*
Y46427D03*
Y53666D03*
D02*
D18*
X129996Y18970D03*
X130121Y26084D03*
X137083Y18970D03*
X137208Y26084D03*
D02*
D19*
X144023Y50622D03*
Y57708D03*
D02*
D70*
X21092Y11857D02*
Y17098D01*
X4993*
Y17972*
X26958Y17847D02*
X28705D01*
Y26209*
X4868*
X32699Y95724D02*
X39189D01*
X34043Y23782D02*
X34096D01*
X34321Y95724D02*
X32699D01*
X44033Y20863D02*
X43806D01*
Y12231*
X44043*
Y89359D02*
Y88735D01*
X51873Y76625D02*
Y70265D01*
X59032*
Y69641*
X59747Y76625D02*
X63424D01*
Y73329*
X59781Y20863D02*
Y11108D01*
X93977*
X67621Y76625D02*
Y85740D01*
X128048*
Y71637*
X144398*
Y71263*
X75495Y76625D02*
X71637D01*
Y73010*
X75529Y20863D02*
Y14921D01*
X79274*
X80748Y89484D02*
Y89235D01*
X78502*
Y89359*
X83369Y76625D02*
X87363D01*
Y73010*
X83403Y20863D02*
Y15226D01*
X101840*
Y12481*
X91243Y76625D02*
Y82745D01*
X104461*
Y74133*
X108080*
Y56911*
X110077*
X99151Y20863D02*
X108704D01*
Y17098*
X113322*
X109078Y2996D02*
Y2871D01*
X109702Y81247D02*
Y75756D01*
X112947*
X121941Y30313D02*
X118439D01*
Y22340*
X118938*
X121941Y32913D02*
X115693D01*
Y26084*
X111325*
X121941Y35513D02*
X110826D01*
Y32075*
X121941Y38013D02*
X109203D01*
Y47426*
X114944*
Y59531*
X135537*
X121941Y40613D02*
X133041D01*
Y39313*
X121941Y43113D02*
X113571D01*
X121941Y45713D02*
X117315D01*
Y52168*
X124055*
X121941Y48313D02*
X129296D01*
Y55288*
X129421*
X124429Y24337D02*
Y18970D01*
X129996*
X130121Y26084D02*
Y39313D01*
X133041*
X138532*
Y50920*
X135537Y59531D02*
Y53416D01*
X133540*
Y48174*
X137083Y18970D02*
X148017D01*
X139156Y79999D02*
X145396D01*
Y77254*
X142401Y26383D02*
Y24587D01*
X137208*
Y26084*
X144023Y50622D02*
Y48313D01*
X144141*
X144023Y57708D02*
Y59531D01*
X140279*
X144141Y32913D02*
X149515D01*
Y24587*
X154382*
X144141Y35513D02*
X133041D01*
Y39313*
X144141Y38013D02*
X154382D01*
Y31950*
X144141Y40613D02*
X154382D01*
Y46427*
X144141Y43113D02*
X133041D01*
Y39313*
X144141Y45713D02*
X149265D01*
Y53167*
X154382*
Y53666*
X145146Y90857D02*
Y84617D01*
X145396*
Y77254*
D02*
D71*
X21092Y11857D03*
X26958Y17847D03*
X34043Y58408D03*
X34096Y23782D03*
X34321Y76505D03*
X44043Y12231D03*
X53541Y95974D03*
X59032Y69641D03*
X80748Y89484D03*
X93977Y11108D03*
X101840Y12481D03*
X110077Y56911D03*
X110826Y32075D03*
X111325Y26084D03*
X113571Y43113D03*
X118938Y22340D03*
X124055Y52168D03*
X124429Y24337D03*
X127424Y11482D03*
X129421Y55288D03*
X130794Y89359D03*
X133540Y48174D03*
X138532Y50920D03*
X142401Y26383D03*
X144398Y71263D03*
X148017Y18970D03*
D02*
D20*
X51907Y11857D03*
X63424Y73329D03*
X71637Y73010D03*
X79274Y14921D03*
X87363Y73010D03*
X109078Y2996D03*
D02*
D21*
X51907Y20863D02*
Y11857D01*
X109078Y2871D02*
X4993D01*
Y4244*
X127424Y11482D02*
Y6490D01*
X15226*
Y11108*
X4993*
D02*
D22*
X67668Y15420D02*
Y20863D01*
X67655*
X67668Y15420D03*
D02*
D23*
X44043Y88735D03*
D02*
D24*
X34043Y49922D02*
Y23782D01*
Y58408D02*
Y49922D01*
X43999Y76625D02*
X44043D01*
Y88735*
D02*
D25*
X4993Y47051D02*
X17098D01*
Y50171*
X4993Y53791D02*
X17098D01*
Y50171*
Y49922*
X34043*
X140279Y59531D02*
X135537D01*
X140279D02*
X153508D01*
Y95974*
X53541*
D02*
D26*
X34321Y76505D02*
Y95724D01*
X39189D02*
X45304D01*
X43999Y76625D02*
Y43432D01*
X49048*
X91277Y20863D02*
Y39313D01*
X81746*
Y42808*
X88735*
Y40811*
X84118*
X99117Y76625D02*
Y51170D01*
X71762*
Y48549*
X63650*
Y47550*
D02*
D81*
X43999Y77708D03*
D02*
D82*
Y74854D03*
D02*
D81*
X51873Y77708D03*
D02*
D82*
Y74854D03*
D02*
D81*
X59747Y77708D03*
D02*
D82*
Y74854D03*
D02*
D81*
X67621Y77708D03*
D02*
D82*
Y74854D03*
D02*
D81*
X75495Y77708D03*
D02*
D82*
Y74854D03*
D02*
D81*
X83369Y77708D03*
D02*
D82*
Y74854D03*
D02*
D81*
X91243Y77708D03*
D02*
D82*
Y74854D03*
D02*
D81*
X99117Y77708D03*
D02*
D82*
Y74854D03*
D02*
D83*
X44033Y19781D03*
D02*
D82*
Y22635D03*
D02*
D83*
X51907Y19781D03*
D02*
D82*
Y22635D03*
D02*
D83*
X59781Y19781D03*
D02*
D82*
Y22635D03*
D02*
D83*
X67655Y19781D03*
D02*
D82*
Y22635D03*
D02*
D83*
X75529Y19781D03*
D02*
D82*
Y22635D03*
D02*
D83*
X83403Y19781D03*
D02*
D82*
Y22635D03*
D02*
D83*
X91277Y19781D03*
D02*
D82*
Y22635D03*
D02*
D83*
X99151Y19781D03*
D02*
D82*
Y22635D03*
D02*
D84*
X121941Y30313D03*
Y32913D03*
Y35513D03*
Y38013D03*
Y40613D03*
Y43113D03*
Y45713D03*
Y48313D03*
X144141Y30313D03*
Y32913D03*
Y35513D03*
Y38013D03*
Y40613D03*
Y43113D03*
Y45713D03*
Y48313D03*
D02*
D85*
X133041Y39313D03*
D02*
D86*
X78502Y89359D02*
X130794D01*
X78502D02*
X44043D01*
X0Y0D02*
M02*
