%FSLAX35Y35*%
%MOIN*%
G04 EasyPC Gerber Version 18.0.8 Build 3632 *
%ADD108R,0.08000X0.08000*%
%ADD11C,0.00500*%
%ADD21C,0.01000*%
%ADD70C,0.01500*%
%ADD71C,0.04800*%
%ADD26C,0.05000*%
%ADD107C,0.08000*%
X0Y0D02*
D02*
D11*
X2750Y19604D02*
G75*
G02X9750Y16351I2000J-4854D01*
G01*
G75*
G02X19750I5000J-1601*
G01*
G75*
G02X29750I5000J-1601*
G01*
G75*
G02X39750I5000J-1601*
G01*
G75*
G02X50000Y14750I5000J-1601*
G01*
G75*
G02X46986Y10000I-5250*
G01*
G75*
G02X49367Y2750I-2236J-4750*
G01*
X56750*
Y20000*
X39000*
Y47750*
X26150*
G75*
G02X28000Y43750I-3400J-4000*
G01*
G75*
G02X27933Y42916I-5250J-1*
G01*
G75*
G02X33400Y39750I1817J-3166*
G01*
G75*
G02X26100Y39708I-3650*
G01*
G75*
G02X19350Y47750I-3350J4042*
G01*
X12150*
G75*
G02X14000Y43750I-3400J-4000*
G01*
G75*
G02X3500I-5250*
G01*
G75*
G02X5350Y47750I5250*
G01*
X2750*
Y19604*
X8100Y28750D02*
G75*
G02X15400I3650D01*
G01*
G75*
G02X8100I-3650*
G01*
X2750D02*
G36*
Y19604D01*
G75*
G02X9750Y16351I2000J-4854*
G01*
G75*
G02X19750I5000J-1601*
G01*
G75*
G02X29750I5000J-1601*
G01*
G75*
G02X39750I5000J-1601*
G01*
G75*
G02X50000Y14750I5000J-1601*
G01*
G75*
G02X46986Y10000I-5250*
G01*
G75*
G02X49367Y2750I-2236J-4750*
G01*
X56750*
Y20000*
X39000*
Y28750*
X15400*
G75*
G02X8100I-3650*
G01*
X2750*
G37*
X8100D02*
G36*
G75*
G02X15400I3650D01*
G01*
X39000*
Y47750*
X26150*
G75*
G02X28000Y43750I-3400J-4000*
G01*
G75*
G02X27933Y42916I-5250J-1*
G01*
G75*
G02X33400Y39750I1817J-3166*
G01*
G75*
G02X26100Y39708I-3650*
G01*
G75*
G02X19350Y47750I-3350J4042*
G01*
X12150*
G75*
G02X14000Y43750I-3400J-4000*
G01*
G75*
G02X3500I-5250*
G01*
G75*
G02X5350Y47750I5250*
G01*
X2750*
Y28750*
X8100*
G37*
X6986Y10000D02*
G75*
G02X9750Y6851I-2236J-4750D01*
G01*
G75*
G02X12514Y10000I5000J-1600*
G01*
G75*
G02X9750Y13149I2236J4750*
G01*
G75*
G02X6986Y10000I-5000J1600*
G01*
G36*
G75*
G02X9750Y6851I-2236J-4750*
G01*
G75*
G02X12514Y10000I5000J-1600*
G01*
G75*
G02X9750Y13149I2236J4750*
G01*
G75*
G02X6986Y10000I-5000J1600*
G01*
G37*
X9367Y2750D02*
X10133D01*
G75*
G02X9750Y3649I4617J2500*
G01*
G75*
G02X9367Y2750I-5000J1601*
G01*
G36*
X10133*
G75*
G02X9750Y3649I4617J2500*
G01*
G75*
G02X9367Y2750I-5000J1601*
G01*
G37*
X16986Y10000D02*
G75*
G02X19750Y6851I-2236J-4750D01*
G01*
G75*
G02X22514Y10000I5000J-1600*
G01*
G75*
G02X19750Y13149I2236J4750*
G01*
G75*
G02X16986Y10000I-5000J1600*
G01*
G36*
G75*
G02X19750Y6851I-2236J-4750*
G01*
G75*
G02X22514Y10000I5000J-1600*
G01*
G75*
G02X19750Y13149I2236J4750*
G01*
G75*
G02X16986Y10000I-5000J1600*
G01*
G37*
X19367Y2750D02*
X20133D01*
G75*
G02X19750Y3649I4617J2500*
G01*
G75*
G02X19367Y2750I-5000J1601*
G01*
G36*
X20133*
G75*
G02X19750Y3649I4617J2500*
G01*
G75*
G02X19367Y2750I-5000J1601*
G01*
G37*
X26986Y10000D02*
G75*
G02X29750Y6851I-2236J-4750D01*
G01*
G75*
G02X32514Y10000I5000J-1600*
G01*
G75*
G02X29750Y13149I2236J4750*
G01*
G75*
G02X26986Y10000I-5000J1600*
G01*
G36*
G75*
G02X29750Y6851I-2236J-4750*
G01*
G75*
G02X32514Y10000I5000J-1600*
G01*
G75*
G02X29750Y13149I2236J4750*
G01*
G75*
G02X26986Y10000I-5000J1600*
G01*
G37*
X29367Y2750D02*
X30133D01*
G75*
G02X29750Y3649I4617J2500*
G01*
G75*
G02X29367Y2750I-5000J1601*
G01*
G36*
X30133*
G75*
G02X29750Y3649I4617J2500*
G01*
G75*
G02X29367Y2750I-5000J1601*
G01*
G37*
X36986Y10000D02*
G75*
G02X39750Y6851I-2236J-4750D01*
G01*
G75*
G02X42514Y10000I5000J-1600*
G01*
G75*
G02X39750Y13149I2236J4750*
G01*
G75*
G02X36986Y10000I-5000J1600*
G01*
G36*
G75*
G02X39750Y6851I-2236J-4750*
G01*
G75*
G02X42514Y10000I5000J-1600*
G01*
G75*
G02X39750Y13149I2236J4750*
G01*
G75*
G02X36986Y10000I-5000J1600*
G01*
G37*
X39367Y2750D02*
X40133D01*
G75*
G02X39750Y3649I4617J2500*
G01*
G75*
G02X39367Y2750I-5000J1601*
G01*
G36*
X40133*
G75*
G02X39750Y3649I4617J2500*
G01*
G75*
G02X39367Y2750I-5000J1601*
G01*
G37*
D02*
D70*
X29750Y39750D02*
Y28750D01*
X11750*
X29750Y39750D02*
X42250D01*
Y45250*
X54250*
D02*
D71*
X11750Y28750D03*
X29750Y39750D03*
D02*
D21*
X9850Y28750D02*
X7850D01*
X11750Y26850D02*
Y24850D01*
Y30650D02*
Y32650D01*
X13650Y28750D02*
X15650D01*
X19250Y43750D02*
X17250D01*
X22750Y40250D02*
Y38250D01*
X26250Y43750D02*
X28250D01*
X29750Y37850D02*
Y35850D01*
Y41650D02*
Y43650D01*
X31650Y39750D02*
X33650D01*
D02*
D26*
X54250Y45250D02*
Y5750D01*
X4750*
Y5250*
D02*
D107*
D03*
Y14750D03*
X8750Y43750D03*
X14750Y5250D03*
Y14750D03*
X22750Y43750D03*
X24750Y5250D03*
Y14750D03*
X34750Y5250D03*
Y14750D03*
X44750Y5250D03*
Y14750D03*
D02*
D108*
X44250Y25250D03*
Y35250D03*
Y45250D03*
X54250Y25250D03*
Y35250D03*
Y45250D03*
X0Y0D02*
M02*
