%FSLAX35Y35*%
%MOIN*%
G04 EasyPC Gerber Version 18.0.8 Build 3632 *
%ADD10C,0.00100*%
X0Y0D02*
D02*
D10*
X47250Y9719D02*
X46469Y11594D01*
X45687Y9719*
X46937Y10500D02*
X46000D01*
X44750Y9875D02*
X44437Y9719D01*
X43813*
X43500Y9875*
Y10187*
X43813Y10344*
X44437*
X44750Y10500*
Y10813*
X44437Y10969*
X43813*
X43500Y10813*
X42250Y9719D02*
Y11594D01*
Y10500D02*
X42094Y10813D01*
X41781Y10969*
X41469*
X41156Y10813*
X41000Y10500*
Y9719*
X39750Y10969D02*
Y9875D01*
X39594Y9719*
X39281*
X39125Y9875*
Y10344*
Y9875D02*
X38969Y9719D01*
X38656*
X38500Y9875*
Y10969*
X36625Y9719D02*
Y10969D01*
Y11437D02*
X34750Y9719*
Y10969D01*
Y10500D02*
X34594Y10813D01*
X34281Y10969*
X33969*
X33656Y10813*
X33500Y10500*
Y9719*
X29750D02*
X28969Y11594D01*
X28187Y9719*
X29437Y10500D02*
X28500D01*
X27250Y9719D02*
Y11594D01*
Y10500D02*
X27094Y10813D01*
X26781Y10969*
X26469*
X26156Y10813*
X26000Y10500*
Y9719*
X24750Y10969D02*
Y10187D01*
X24594Y9875*
X24281Y9719*
X23969*
X23656Y9875*
X23500Y10187*
Y10969D02*
Y9719D01*
X22094Y9406D02*
X21781Y9250D01*
X21469Y9406*
X21313Y9719*
Y10969*
Y11437D02*
X19750Y10813*
X19437Y10969D01*
X18969*
X18656Y10813*
X18500Y10500*
Y10031*
X18656Y9875*
X18969Y9719*
X19281*
X19594Y9875*
X19750Y10031*
Y10187*
X19594Y10344*
X19281Y10500*
X18969*
X18656Y10344*
X18500Y10187*
Y10031D02*
Y9719D01*
X0Y0D02*
M02*
